<svg xmlns="http://www.w3.org/2000/svg" viewBox="0 0 208.92 208.92"><defs><style>.cls-1{fill:#eff9fe;stroke:#9ad2cb;stroke-miterlimit:10;stroke-width:5px;}.cls-2{fill:#1a8479;}.cls-3{fill:#dfe675;}</style></defs><g id="Layer_2" data-name="Layer 2"><g id="Layer_1-2" data-name="Layer 1"><circle class="cls-1" cx="104.46" cy="104.46" r="101.96"/><path class="cls-2" d="M33.49,91.7V79l-1.34-.21a1.45,1.45,0,0,1-.71-.3.82.82,0,0,1-.26-.64V76.35h2.31V75.7a7.45,7.45,0,0,1,.38-2.37,5.63,5.63,0,0,1,1.19-2,5.82,5.82,0,0,1,2-1.39,7.33,7.33,0,0,1,2.9-.52c.92,0,1.78,0,2.6.09s1.64.09,2.46.09h2.09V91.7H43.42V72.14H40.57a3.4,3.4,0,0,0-2.58.93,3.64,3.64,0,0,0-.89,2.64v.64h3.66V79H37.22V91.7Z"/><path class="cls-2" d="M51.84,76.21v9.84a3.3,3.3,0,0,0,.66,2.2,2.43,2.43,0,0,0,2,.78,4,4,0,0,0,1.81-.43,6.28,6.28,0,0,0,1.6-1.19V76.21h3.73V91.7H59.33a.92.92,0,0,1-.95-.68l-.26-1.24a11.69,11.69,0,0,1-1,.89,6.93,6.93,0,0,1-1.1.68,6.14,6.14,0,0,1-1.25.43,6.05,6.05,0,0,1-1.44.16,5.43,5.43,0,0,1-2.24-.43,4.53,4.53,0,0,1-1.64-1.21,5.52,5.52,0,0,1-1-1.87,8.1,8.1,0,0,1-.33-2.38V76.21Z"/><path class="cls-2" d="M42,102.27a1,1,0,0,1-.32.34.77.77,0,0,1-.42.1,1.32,1.32,0,0,1-.58-.15l-.72-.34a5.87,5.87,0,0,0-.93-.34,4.5,4.5,0,0,0-1.23-.15,2.8,2.8,0,0,0-1.73.47,1.42,1.42,0,0,0-.64,1.22,1.17,1.17,0,0,0,.33.84,2.89,2.89,0,0,0,.86.59,7.66,7.66,0,0,0,1.21.46l1.39.45a13.84,13.84,0,0,1,1.39.55,5,5,0,0,1,1.21.78A3.49,3.49,0,0,1,43,109.83a5.12,5.12,0,0,1-.41,2.06,4.47,4.47,0,0,1-1.19,1.63,5.59,5.59,0,0,1-1.94,1.08,8.56,8.56,0,0,1-2.65.38,9,9,0,0,1-1.56-.14,9.93,9.93,0,0,1-1.47-.4,8.08,8.08,0,0,1-1.29-.61,6.13,6.13,0,0,1-1.05-.75l.86-1.42a1.21,1.21,0,0,1,.39-.39,1.09,1.09,0,0,1,.57-.14,1.24,1.24,0,0,1,.66.2c.21.13.44.27.72.42a6.57,6.57,0,0,0,.95.42,4.28,4.28,0,0,0,1.4.2,3.52,3.52,0,0,0,1.14-.16,2.55,2.55,0,0,0,.79-.41,1.72,1.72,0,0,0,.45-.6,1.9,1.9,0,0,0,.14-.7,1.28,1.28,0,0,0-.32-.89,3,3,0,0,0-.86-.61,9.1,9.1,0,0,0-1.23-.46c-.45-.13-.92-.28-1.4-.44a11.4,11.4,0,0,1-1.4-.57,4.72,4.72,0,0,1-1.23-.82,3.89,3.89,0,0,1-.86-1.22,4.73,4.73,0,0,1,.06-3.57,4.25,4.25,0,0,1,1.11-1.5,5.24,5.24,0,0,1,1.82-1A7.51,7.51,0,0,1,37.76,99a7.73,7.73,0,0,1,2.91.53,6.38,6.38,0,0,1,2.19,1.39Z"/><path class="cls-2" d="M45.07,114.74V92.31h3.72v8.62a7.73,7.73,0,0,1,2-1.39A5.77,5.77,0,0,1,53.34,99a5.54,5.54,0,0,1,2.25.43,4.53,4.53,0,0,1,1.64,1.21,5.39,5.39,0,0,1,1,1.85,7.82,7.82,0,0,1,.34,2.38v9.86H54.83v-9.86a3.33,3.33,0,0,0-.65-2.19,2.44,2.44,0,0,0-2-.78,3.82,3.82,0,0,0-1.82.44,6.71,6.71,0,0,0-1.6,1.19v11.2Z"/><path class="cls-2" d="M68,99a8.54,8.54,0,0,1,3.15.56,6.87,6.87,0,0,1,2.41,1.58,7.22,7.22,0,0,1,1.54,2.51,10.45,10.45,0,0,1,0,6.63,7.46,7.46,0,0,1-1.54,2.52,6.78,6.78,0,0,1-2.41,1.6,9.14,9.14,0,0,1-6.3,0,6.78,6.78,0,0,1-2.43-1.6,7.48,7.48,0,0,1-1.55-2.52,10.27,10.27,0,0,1,0-6.63,7.24,7.24,0,0,1,1.55-2.51,6.86,6.86,0,0,1,2.43-1.58A8.57,8.57,0,0,1,68,99Zm0,13.09a3.29,3.29,0,0,0,2.86-1.3,6.5,6.5,0,0,0,.93-3.8,6.57,6.57,0,0,0-.93-3.82A3.26,3.26,0,0,0,68,101.86a3.32,3.32,0,0,0-2.9,1.32,6.61,6.61,0,0,0-.93,3.82,6.48,6.48,0,0,0,.93,3.79A3.34,3.34,0,0,0,68,112.1Z"/><path class="cls-2" d="M82.35,115a4.05,4.05,0,0,1-3.09-1.14,4.36,4.36,0,0,1-1.09-3.15V102H76.6a.76.76,0,0,1-.52-.19.78.78,0,0,1-.22-.59V99.78l2.49-.41.79-4.22a.74.74,0,0,1,.28-.47.88.88,0,0,1,.55-.17H81.9v4.88H86V102H81.9v8.4a1.65,1.65,0,0,0,.36,1.13,1.25,1.25,0,0,0,1,.41,1.64,1.64,0,0,0,.58-.09,2.67,2.67,0,0,0,.41-.17l.31-.17a.48.48,0,0,1,.27-.09.4.4,0,0,1,.27.09,1,1,0,0,1,.23.25l1.11,1.81a5.56,5.56,0,0,1-1.87,1A7,7,0,0,1,82.35,115Z"/><path class="cls-2" d="M43.71,125.57a1.71,1.71,0,0,1-.33.33.74.74,0,0,1-.46.12,1.1,1.1,0,0,1-.56-.17l-.64-.4a6.39,6.39,0,0,0-.9-.39,4.34,4.34,0,0,0-1.29-.17,4,4,0,0,0-1.72.35,3.22,3.22,0,0,0-1.23,1,4.51,4.51,0,0,0-.74,1.61A8.67,8.67,0,0,0,35.6,130a8.26,8.26,0,0,0,.27,2.21,4.68,4.68,0,0,0,.76,1.62,3.24,3.24,0,0,0,1.21,1,3.72,3.72,0,0,0,1.6.34,4.11,4.11,0,0,0,1.44-.22,5,5,0,0,0,.93-.49c.25-.17.47-.33.65-.48a1,1,0,0,1,.63-.22.76.76,0,0,1,.68.35l1.07,1.36a6.59,6.59,0,0,1-1.34,1.21,7.52,7.52,0,0,1-1.51.79,7.83,7.83,0,0,1-1.6.41,11.55,11.55,0,0,1-1.65.12,6.84,6.84,0,0,1-2.7-.53,6.35,6.35,0,0,1-2.21-1.56,7.67,7.67,0,0,1-1.5-2.52,9.88,9.88,0,0,1-.55-3.39,10.06,10.06,0,0,1,.49-3.16,7.15,7.15,0,0,1,1.45-2.52,6.61,6.61,0,0,1,2.35-1.67,8.16,8.16,0,0,1,3.23-.6,7.71,7.71,0,0,1,3,.56,7.38,7.38,0,0,1,2.35,1.6Z"/><path class="cls-2" d="M52.44,122.05a7.58,7.58,0,0,1,2.7.47,5.94,5.94,0,0,1,2.12,1.36,6.31,6.31,0,0,1,1.39,2.21,8.35,8.35,0,0,1,.5,3,6.47,6.47,0,0,1,0,.7,1.14,1.14,0,0,1-.14.44.51.51,0,0,1-.26.22,1,1,0,0,1-.42.07H48.72A5.29,5.29,0,0,0,50,134a4,4,0,0,0,3,1.12,5.17,5.17,0,0,0,1.56-.21,7.41,7.41,0,0,0,1.15-.47c.32-.17.61-.32.86-.47a1.41,1.41,0,0,1,.71-.21.82.82,0,0,1,.4.09.86.86,0,0,1,.28.26L59,135.47a5.9,5.9,0,0,1-1.39,1.21,7.75,7.75,0,0,1-1.61.79,9,9,0,0,1-1.7.41,12.3,12.3,0,0,1-1.68.12,8.25,8.25,0,0,1-3-.53,6.76,6.76,0,0,1-2.41-1.59,7.32,7.32,0,0,1-1.62-2.59A10.12,10.12,0,0,1,45,129.7a8.41,8.41,0,0,1,.52-3A7.13,7.13,0,0,1,47,124.29a7,7,0,0,1,2.34-1.64A7.74,7.74,0,0,1,52.44,122.05Zm.08,2.67a3.45,3.45,0,0,0-2.55.92,4.6,4.6,0,0,0-1.18,2.61h7a4.66,4.66,0,0,0-.2-1.36,3.15,3.15,0,0,0-.6-1.13,3,3,0,0,0-1-.76A3.44,3.44,0,0,0,52.52,124.72Z"/><path class="cls-2" d="M61.25,137.78V122.29h2.28a.91.91,0,0,1,1,.68l.26,1.22a8.11,8.11,0,0,1,1-.87,6.93,6.93,0,0,1,1.1-.68,5.6,5.6,0,0,1,1.25-.44,6.52,6.52,0,0,1,1.45-.15,5.46,5.46,0,0,1,2.24.43,4.44,4.44,0,0,1,1.64,1.21,5.32,5.32,0,0,1,1,1.85,7.82,7.82,0,0,1,.34,2.38v9.86H71v-9.86a3.27,3.27,0,0,0-.66-2.19,2.41,2.41,0,0,0-2-.78,3.81,3.81,0,0,0-1.81.44,6.45,6.45,0,0,0-1.6,1.19v11.2Z"/><path class="cls-2" d="M82.24,138a4.05,4.05,0,0,1-3.09-1.14,4.36,4.36,0,0,1-1.09-3.15v-8.65H76.49a.76.76,0,0,1-.52-.19.74.74,0,0,1-.22-.59v-1.48l2.49-.41.79-4.22a.71.71,0,0,1,.28-.47.88.88,0,0,1,.55-.17h1.93v4.88h4.07v2.65H81.79v8.4a1.65,1.65,0,0,0,.36,1.13,1.23,1.23,0,0,0,1,.41,1.64,1.64,0,0,0,.58-.09,3.17,3.17,0,0,0,.41-.17l.3-.17a.54.54,0,0,1,.28-.09.4.4,0,0,1,.27.09,1.06,1.06,0,0,1,.22.24l1.12,1.82a5.66,5.66,0,0,1-1.87,1A7,7,0,0,1,82.24,138Z"/><path class="cls-2" d="M87.71,137.78V122.29H89.9a1.18,1.18,0,0,1,.8.21,1.21,1.21,0,0,1,.3.73l.23,1.87a7.41,7.41,0,0,1,1.94-2.27,4.13,4.13,0,0,1,2.51-.83,3.25,3.25,0,0,1,1.9.53l-.48,2.8a.58.58,0,0,1-.2.38.64.64,0,0,1-.41.11,2.58,2.58,0,0,1-.62-.1,4.07,4.07,0,0,0-1-.11,3.2,3.2,0,0,0-2,.64,5,5,0,0,0-1.4,1.88v9.65Z"/><path class="cls-2" d="M110.27,137.78h-1.68a1.75,1.75,0,0,1-.83-.16,1,1,0,0,1-.45-.64l-.33-1.1a11.36,11.36,0,0,1-1.16.92,6.25,6.25,0,0,1-1.17.68,6,6,0,0,1-1.28.4,7.76,7.76,0,0,1-1.51.14,5.82,5.82,0,0,1-1.81-.27,3.91,3.91,0,0,1-1.43-.79,3.75,3.75,0,0,1-.93-1.32,4.67,4.67,0,0,1-.33-1.83,3.67,3.67,0,0,1,.46-1.73,4.29,4.29,0,0,1,1.54-1.55,9.59,9.59,0,0,1,2.85-1.14,17.84,17.84,0,0,1,4.42-.46V128a3.45,3.45,0,0,0-.66-2.32,2.39,2.39,0,0,0-1.91-.75,4.7,4.7,0,0,0-1.51.21,6,6,0,0,0-1,.47l-.83.48a1.65,1.65,0,0,1-.83.21,1,1,0,0,1-.65-.2,1.52,1.52,0,0,1-.43-.48l-.68-1.19a9.21,9.21,0,0,1,6.44-2.45,6.19,6.19,0,0,1,2.43.45,5.22,5.22,0,0,1,1.8,1.24,5.27,5.27,0,0,1,1.12,1.89,7.23,7.23,0,0,1,.39,2.42ZM103,135.45a5,5,0,0,0,1.06-.1A3.91,3.91,0,0,0,105,135a4.75,4.75,0,0,0,.83-.51,7.62,7.62,0,0,0,.81-.73v-2.59a14.73,14.73,0,0,0-2.72.21,7,7,0,0,0-1.76.52,2.2,2.2,0,0,0-1,.75,1.68,1.68,0,0,0-.27.92,1.65,1.65,0,0,0,.58,1.42A2.5,2.5,0,0,0,103,135.45Z"/><path class="cls-2" d="M116.87,115.35v22.43h-3.73V115.35Z"/><path class="cls-3" d="M119.28,135.73a2.48,2.48,0,0,1,.17-.9,2.14,2.14,0,0,1,.49-.72,2.32,2.32,0,0,1,.73-.48,2.26,2.26,0,0,1,.9-.18,2.3,2.3,0,0,1,.9.18,2.21,2.21,0,0,1,1.2,1.2,2.3,2.3,0,0,1,.18.9,2.18,2.18,0,0,1-.18.89,2.21,2.21,0,0,1-1.2,1.2,2.48,2.48,0,0,1-.9.17,2.44,2.44,0,0,1-.9-.17,2.32,2.32,0,0,1-.73-.48,2.14,2.14,0,0,1-.49-.72A2.35,2.35,0,0,1,119.28,135.73Z"/><path class="cls-3" d="M136.7,125.57a1.71,1.71,0,0,1-.33.33.72.72,0,0,1-.46.12,1,1,0,0,1-.55-.17l-.65-.4a5.51,5.51,0,0,0-.9-.39,4.34,4.34,0,0,0-1.29-.17,4,4,0,0,0-1.72.35,3.22,3.22,0,0,0-1.23,1,4.69,4.69,0,0,0-.74,1.61,8.67,8.67,0,0,0-.24,2.13,8.26,8.26,0,0,0,.27,2.21,4.68,4.68,0,0,0,.76,1.62,3.24,3.24,0,0,0,1.21,1,3.72,3.72,0,0,0,1.6.34,4.11,4.11,0,0,0,1.44-.22,4.46,4.46,0,0,0,.93-.49c.25-.17.47-.33.65-.48a1,1,0,0,1,.63-.22.76.76,0,0,1,.68.35l1.07,1.36a6.59,6.59,0,0,1-1.34,1.21,7.45,7.45,0,0,1-1.5.79,8.09,8.09,0,0,1-1.61.41,11.55,11.55,0,0,1-1.65.12,6.84,6.84,0,0,1-2.7-.53,6.45,6.45,0,0,1-2.21-1.56,7.48,7.48,0,0,1-1.49-2.52,9.64,9.64,0,0,1-.56-3.39,10.06,10.06,0,0,1,.49-3.16,7.15,7.15,0,0,1,1.45-2.52,6.7,6.7,0,0,1,2.35-1.67,8.16,8.16,0,0,1,3.23-.6,7.71,7.71,0,0,1,3,.56,7.27,7.27,0,0,1,2.35,1.6Z"/><path class="cls-3" d="M145.66,122.05a8.54,8.54,0,0,1,3.15.56,6.87,6.87,0,0,1,2.41,1.58,7.22,7.22,0,0,1,1.54,2.51,9.56,9.56,0,0,1,.54,3.3,9.69,9.69,0,0,1-.54,3.33,7.46,7.46,0,0,1-1.54,2.52,6.92,6.92,0,0,1-2.41,1.6,9.3,9.3,0,0,1-6.3,0,6.91,6.91,0,0,1-2.43-1.6,7.33,7.33,0,0,1-1.55-2.52A9.46,9.46,0,0,1,138,130a9.33,9.33,0,0,1,.55-3.3,7.1,7.1,0,0,1,1.55-2.51,6.86,6.86,0,0,1,2.43-1.58A8.54,8.54,0,0,1,145.66,122.05Zm0,13.09a3.29,3.29,0,0,0,2.86-1.3,8.27,8.27,0,0,0,0-7.62,3.26,3.26,0,0,0-2.86-1.32,3.32,3.32,0,0,0-2.9,1.32,6.58,6.58,0,0,0-.93,3.81,6.5,6.5,0,0,0,.93,3.8A3.34,3.34,0,0,0,145.66,135.14Z"/><path class="cls-3" d="M155.27,137.78V122.29h2.27a.93.93,0,0,1,1,.68l.24,1.15a8.3,8.3,0,0,1,.85-.83,5.51,5.51,0,0,1,.95-.65,5,5,0,0,1,1.09-.43,4.6,4.6,0,0,1,1.27-.16,3.61,3.61,0,0,1,2.41.79,4.74,4.74,0,0,1,1.41,2.11,4.55,4.55,0,0,1,.91-1.32,4.85,4.85,0,0,1,1.19-.9,5.43,5.43,0,0,1,1.38-.51,6.69,6.69,0,0,1,3.75.22,4.35,4.35,0,0,1,1.68,1.15,5,5,0,0,1,1,1.84,8,8,0,0,1,.36,2.49v9.86h-3.73v-9.86a3.35,3.35,0,0,0-.65-2.23,2.41,2.41,0,0,0-1.9-.74,2.87,2.87,0,0,0-1.07.19,2.58,2.58,0,0,0-.86.57,2.72,2.72,0,0,0-.58.93,3.62,3.62,0,0,0-.21,1.28v9.86h-3.74v-9.86a3.35,3.35,0,0,0-.63-2.26,2.31,2.31,0,0,0-1.85-.71,3,3,0,0,0-1.5.4,5.07,5.07,0,0,0-1.31,1.09v11.34Z"/></g></g></svg>