<svg xmlns="http://www.w3.org/2000/svg" viewBox="0 0 246.61 117.47"><defs><style>.cls-1{opacity:0.2;}.cls-2{opacity:0.7;}.cls-3{opacity:0.5;}.cls-4{fill:#1a8479;}.cls-5{fill:#dfe675;}</style></defs><g id="Layer_2" data-name="Layer 2"><g id="Layer_2-2" data-name="Layer 2"><path class="cls-4" d="M4,38.15V16.44l-2.3-.36a2.45,2.45,0,0,1-1.2-.52A1.35,1.35,0,0,1,0,14.48V11.86H4V10.75a12.56,12.56,0,0,1,.66-4.06,9.57,9.57,0,0,1,2-3.42A10.05,10.05,0,0,1,10.11.89a12.67,12.67,0,0,1,5-.89c1.57,0,3.05.05,4.46.16s2.8.15,4.2.15h3.59V38.15H21V4.65H16.08a5.8,5.8,0,0,0-4.42,1.6,6.26,6.26,0,0,0-1.53,4.52v1.09h6.28v4.55H10.34V38.15Z"/><path class="cls-4" d="M35.39,11.63V28.49a5.66,5.66,0,0,0,1.12,3.76,4.2,4.2,0,0,0,3.37,1.33A6.79,6.79,0,0,0,43,32.84a11.1,11.1,0,0,0,2.74-2V11.63h6.38V38.15h-3.9A1.56,1.56,0,0,1,46.58,37l-.44-2.12a17.12,17.12,0,0,1-1.71,1.51,10.1,10.1,0,0,1-1.87,1.17,11.58,11.58,0,0,1-2.15.75,10.72,10.72,0,0,1-2.46.27,9.43,9.43,0,0,1-3.84-.74,7.68,7.68,0,0,1-2.81-2.08,9.16,9.16,0,0,1-1.72-3.19A13.75,13.75,0,0,1,29,28.49V11.63Z"/><path class="cls-4" d="M18.56,56.26a1.7,1.7,0,0,1-.54.58,1.43,1.43,0,0,1-.73.17,2.28,2.28,0,0,1-1-.26c-.36-.17-.76-.37-1.23-.58a12.09,12.09,0,0,0-1.59-.59,7.73,7.73,0,0,0-2.11-.25,4.87,4.87,0,0,0-3,.8,2.49,2.49,0,0,0-1.09,2.09,2,2,0,0,0,.56,1.44,5.29,5.29,0,0,0,1.47,1,14.78,14.78,0,0,0,2.09.78c.77.24,1.56.49,2.37.77a24.51,24.51,0,0,1,2.38.94,8.15,8.15,0,0,1,2.08,1.34,6.54,6.54,0,0,1,1.48,2,6.2,6.2,0,0,1,.55,2.74,8.68,8.68,0,0,1-.7,3.52,7.7,7.7,0,0,1-2,2.8,9.56,9.56,0,0,1-3.32,1.83A14.33,14.33,0,0,1,9.69,78,14.73,14.73,0,0,1,7,77.78a16.85,16.85,0,0,1-2.51-.69,14.16,14.16,0,0,1-2.22-1,10.94,10.94,0,0,1-1.8-1.3L2,72.33a2.17,2.17,0,0,1,.68-.67,1.92,1.92,0,0,1,1-.23,2,2,0,0,1,1.12.34L6,72.49a10.58,10.58,0,0,0,1.64.72,7.08,7.08,0,0,0,2.39.34,6.31,6.31,0,0,0,2-.27,4.14,4.14,0,0,0,1.34-.71,2.76,2.76,0,0,0,.77-1,3,3,0,0,0,.25-1.21,2.14,2.14,0,0,0-.56-1.52,4.93,4.93,0,0,0-1.47-1A14.33,14.33,0,0,0,10.2,67c-.79-.24-1.59-.49-2.41-.77a19.12,19.12,0,0,1-2.4-1,8.22,8.22,0,0,1-2.09-1.4,6.28,6.28,0,0,1-1.48-2.1,7.31,7.31,0,0,1-.55-3,7.65,7.65,0,0,1,.64-3.1,7.33,7.33,0,0,1,1.9-2.57,9.54,9.54,0,0,1,3.13-1.76,13,13,0,0,1,4.33-.66,13.12,13.12,0,0,1,5,.91A11.11,11.11,0,0,1,20,54Z"/><path class="cls-4" d="M23.48,77.61V39.2h6.38V54a13.18,13.18,0,0,1,3.41-2.38,9.8,9.8,0,0,1,4.37-.91,9.51,9.51,0,0,1,3.85.74,7.6,7.6,0,0,1,2.81,2.07A8.91,8.91,0,0,1,46,56.66a13.43,13.43,0,0,1,.58,4.07V77.61H40.2V60.73A5.64,5.64,0,0,0,39.08,57a4.17,4.17,0,0,0-3.38-1.33,6.66,6.66,0,0,0-3.1.75,11,11,0,0,0-2.74,2V77.61Z"/><path class="cls-4" d="M62.44,50.67a14.44,14.44,0,0,1,5.38,1A11.64,11.64,0,0,1,72,54.34a12.25,12.25,0,0,1,2.63,4.29,17.78,17.78,0,0,1,0,11.35A12.38,12.38,0,0,1,72,74.3,11.45,11.45,0,0,1,67.82,77a14.44,14.44,0,0,1-5.38,1A14.6,14.6,0,0,1,57,77a11.61,11.61,0,0,1-4.15-2.74A12.44,12.44,0,0,1,50.22,70a17.6,17.6,0,0,1,0-11.35,12.31,12.31,0,0,1,2.66-4.29A11.81,11.81,0,0,1,57,51.63,14.6,14.6,0,0,1,62.44,50.67Zm0,22.41a5.61,5.61,0,0,0,4.89-2.22q1.59-2.22,1.59-6.51t-1.59-6.54a5.58,5.58,0,0,0-4.89-2.25,5.66,5.66,0,0,0-5,2.26,11.2,11.2,0,0,0-1.6,6.53q0,4.26,1.6,6.5A5.69,5.69,0,0,0,62.44,73.08Z"/><path class="cls-4" d="M86.7,78a7,7,0,0,1-5.3-2,7.5,7.5,0,0,1-1.86-5.39V55.87H76.85a1.22,1.22,0,0,1-1.26-1.35V52l4.26-.7,1.35-7.23a1.28,1.28,0,0,1,.47-.81,1.53,1.53,0,0,1,1-.28h3.31v8.35h7v4.55h-7V70.24a2.79,2.79,0,0,0,.62,1.94,2.11,2.11,0,0,0,1.65.7,2.89,2.89,0,0,0,1-.15,5.13,5.13,0,0,0,.69-.29c.2-.11.38-.2.53-.3a.94.94,0,0,1,.47-.14.74.74,0,0,1,.46.14,2.11,2.11,0,0,1,.39.43l1.92,3.1a9.82,9.82,0,0,1-3.21,1.76A12.15,12.15,0,0,1,86.7,78Z"/><path class="cls-4" d="M21.45,96.15a3.35,3.35,0,0,1-.55.57,1.26,1.26,0,0,1-.79.2,1.74,1.74,0,0,1-1-.29c-.31-.2-.68-.42-1.11-.67a8.25,8.25,0,0,0-1.54-.68A7.31,7.31,0,0,0,14.29,95a6.77,6.77,0,0,0-2.94.6,5.6,5.6,0,0,0-2.11,1.75A7.73,7.73,0,0,0,8,100.09a14.61,14.61,0,0,0-.42,3.66A14,14,0,0,0,8,107.52a8,8,0,0,0,1.3,2.78A5.66,5.66,0,0,0,11.4,112a6.22,6.22,0,0,0,2.74.58,6.78,6.78,0,0,0,2.47-.38,7.83,7.83,0,0,0,1.59-.82c.43-.3.8-.58,1.12-.83a1.7,1.7,0,0,1,1.07-.37,1.29,1.29,0,0,1,1.17.59l1.83,2.33a11.5,11.5,0,0,1-2.3,2.08,11.89,11.89,0,0,1-2.57,1.34,12.93,12.93,0,0,1-2.75.71,19.32,19.32,0,0,1-2.82.21,11.81,11.81,0,0,1-4.63-.92,10.77,10.77,0,0,1-3.78-2.67A13,13,0,0,1,2,109.55a16.6,16.6,0,0,1-.95-5.8,16.92,16.92,0,0,1,.84-5.42A12.31,12.31,0,0,1,4.34,94a11.28,11.28,0,0,1,4-2.86,13.85,13.85,0,0,1,5.53-1,13.34,13.34,0,0,1,5.21,1,12.62,12.62,0,0,1,4,2.74Z"/><path class="cls-4" d="M36.1,90.13a12.72,12.72,0,0,1,4.61.8,10,10,0,0,1,3.64,2.34A10.58,10.58,0,0,1,46.72,97a14.22,14.22,0,0,1,.86,5.11,8.06,8.06,0,0,1-.07,1.2,1.9,1.9,0,0,1-.23.75,1,1,0,0,1-.45.39,2.12,2.12,0,0,1-.73.11H29.72c.18,2.72.92,4.72,2.19,6A6.89,6.89,0,0,0,37,112.51a8.8,8.8,0,0,0,2.67-.36,12.77,12.77,0,0,0,2-.8c.56-.29,1.05-.56,1.47-.8a2.47,2.47,0,0,1,1.23-.36,1.41,1.41,0,0,1,.67.15,1.37,1.37,0,0,1,.49.44l1.86,2.33A10.61,10.61,0,0,1,45,115.19a13,13,0,0,1-2.76,1.34,14.81,14.81,0,0,1-2.92.71,20.57,20.57,0,0,1-2.88.21,14.18,14.18,0,0,1-5.14-.92,11.41,11.41,0,0,1-4.14-2.71,12.89,12.89,0,0,1-2.77-4.45,17.26,17.26,0,0,1-1-6.14,14.54,14.54,0,0,1,.88-5.1A12.16,12.16,0,0,1,26.76,94a11.87,11.87,0,0,1,4-2.8A13.21,13.21,0,0,1,36.1,90.13Zm.13,4.57a5.91,5.91,0,0,0-4.37,1.58,7.82,7.82,0,0,0-2,4.47h12a7.74,7.74,0,0,0-.34-2.34,5.39,5.39,0,0,0-1-1.92,4.84,4.84,0,0,0-1.76-1.31A6,6,0,0,0,36.23,94.7Z"/><path class="cls-4" d="M50.88,117.06V90.54h3.9a1.57,1.57,0,0,1,1.63,1.16l.44,2.1a14.87,14.87,0,0,1,1.69-1.5,12.35,12.35,0,0,1,1.89-1.17,10.52,10.52,0,0,1,2.13-.75,11.42,11.42,0,0,1,2.49-.25,9.55,9.55,0,0,1,3.85.73,7.56,7.56,0,0,1,2.8,2.07,9.17,9.17,0,0,1,1.71,3.18,13.75,13.75,0,0,1,.58,4.07v16.88H67.6V100.18a5.66,5.66,0,0,0-1.12-3.76,4.15,4.15,0,0,0-3.37-1.33,6.67,6.67,0,0,0-3.11.75,11.41,11.41,0,0,0-2.74,2v19.18Z"/><path class="cls-4" d="M86.5,117.47a7,7,0,0,1-5.3-2,7.48,7.48,0,0,1-1.86-5.39V95.32H76.65A1.22,1.22,0,0,1,75.38,94V91.44l4.27-.69L81,83.51a1.27,1.27,0,0,1,.48-.8,1.53,1.53,0,0,1,1-.29h3.3v8.35h7v4.55h-7v14.37a2.82,2.82,0,0,0,.62,1.94,2.11,2.11,0,0,0,1.66.7,3.06,3.06,0,0,0,1-.14,7,7,0,0,0,.7-.3,5,5,0,0,0,.53-.3.94.94,0,0,1,.47-.14.74.74,0,0,1,.46.14,2.44,2.44,0,0,1,.39.43l1.91,3.1a9.69,9.69,0,0,1-3.2,1.76A11.86,11.86,0,0,1,86.5,117.47Z"/><path class="cls-4" d="M95.55,117.06V90.54h3.74a2,2,0,0,1,1.37.36,2,2,0,0,1,.52,1.24l.39,3.21a12.69,12.69,0,0,1,3.33-3.88,7,7,0,0,1,4.29-1.42,5.57,5.57,0,0,1,3.26.9l-.83,4.79a.94.94,0,0,1-.33.65,1.14,1.14,0,0,1-.7.2,4.38,4.38,0,0,1-1.06-.18,7.11,7.11,0,0,0-1.78-.18,5.39,5.39,0,0,0-3.42,1.1,8.56,8.56,0,0,0-2.4,3.21v16.52Z"/><path class="cls-4" d="M133.87,117.06H131a3.14,3.14,0,0,1-1.43-.27,1.75,1.75,0,0,1-.77-1.1l-.57-1.89a19.15,19.15,0,0,1-2,1.59,11.48,11.48,0,0,1-2,1.15,9.92,9.92,0,0,1-2.2.7,12.83,12.83,0,0,1-2.58.23,10.18,10.18,0,0,1-3.1-.45,6.72,6.72,0,0,1-2.45-1.36,6.25,6.25,0,0,1-1.59-2.26,8,8,0,0,1-.57-3.14,6.29,6.29,0,0,1,.79-3,7.51,7.51,0,0,1,2.63-2.64,16.65,16.65,0,0,1,4.88-2,31.14,31.14,0,0,1,7.58-.78v-1.56a5.92,5.92,0,0,0-1.13-4,4.11,4.11,0,0,0-3.27-1.29,7.94,7.94,0,0,0-2.58.36,9.43,9.43,0,0,0-1.8.82l-1.41.81a2.86,2.86,0,0,1-1.42.36,1.87,1.87,0,0,1-1.11-.33,2.7,2.7,0,0,1-.75-.83l-1.17-2a15.75,15.75,0,0,1,11-4.19,10.63,10.63,0,0,1,4.15.76,8.82,8.82,0,0,1,3.09,2.12,9.25,9.25,0,0,1,1.93,3.24,12.48,12.48,0,0,1,.66,4.14Zm-12.41-4a8.54,8.54,0,0,0,1.81-.18,6.83,6.83,0,0,0,1.56-.53,8.14,8.14,0,0,0,1.42-.88,13.79,13.79,0,0,0,1.39-1.23v-4.44a25.41,25.41,0,0,0-4.67.35,11.91,11.91,0,0,0-3,.9,3.89,3.89,0,0,0-1.62,1.27,2.85,2.85,0,0,0-.48,1.59,2.8,2.8,0,0,0,1,2.42A4.26,4.26,0,0,0,121.46,113.08Z"/><path class="cls-4" d="M144.85,78.65v38.41h-6.38V78.65Z"/><path class="cls-5" d="M148.68,113.55A3.93,3.93,0,0,1,149,112a3.7,3.7,0,0,1,.83-1.24,4.2,4.2,0,0,1,1.25-.83,4,4,0,0,1,1.55-.31,4,4,0,0,1,1.53.31,4,4,0,0,1,1.24.83,3.86,3.86,0,0,1,.83,1.24,4,4,0,0,1,.31,1.53,3.87,3.87,0,0,1-.31,1.53,3.81,3.81,0,0,1-.83,1.23,3.68,3.68,0,0,1-1.24.82,4.12,4.12,0,0,1-1.53.29,4.23,4.23,0,0,1-1.55-.29,3.82,3.82,0,0,1-1.25-.82,3.66,3.66,0,0,1-.83-1.23A3.86,3.86,0,0,1,148.68,113.55Z"/><path class="cls-5" d="M178.19,96.15a3.37,3.37,0,0,1-.56.57,1.26,1.26,0,0,1-.79.2,1.74,1.74,0,0,1-1-.29c-.31-.2-.68-.42-1.11-.67a8.25,8.25,0,0,0-1.54-.68A7.31,7.31,0,0,0,171,95a6.77,6.77,0,0,0-2.94.6A5.6,5.6,0,0,0,166,97.34a7.73,7.73,0,0,0-1.25,2.75,14.61,14.61,0,0,0-.42,3.66,14,14,0,0,0,.46,3.77,8,8,0,0,0,1.3,2.78,5.66,5.66,0,0,0,2.07,1.71,6.22,6.22,0,0,0,2.74.58,6.78,6.78,0,0,0,2.47-.38,7.83,7.83,0,0,0,1.59-.82c.43-.3.8-.58,1.12-.83a1.7,1.7,0,0,1,1.08-.37,1.29,1.29,0,0,1,1.16.59l1.83,2.33a11.5,11.5,0,0,1-2.3,2.08,11.89,11.89,0,0,1-2.57,1.34,12.93,12.93,0,0,1-2.75.71,19.32,19.32,0,0,1-2.82.21,11.81,11.81,0,0,1-4.63-.92,10.77,10.77,0,0,1-3.78-2.67,13,13,0,0,1-2.56-4.31,16.6,16.6,0,0,1-1-5.8,16.92,16.92,0,0,1,.84-5.42A12.31,12.31,0,0,1,161.07,94a11.28,11.28,0,0,1,4-2.86,13.85,13.85,0,0,1,5.53-1,13.34,13.34,0,0,1,5.21,1,12.77,12.77,0,0,1,4,2.74Z"/><path class="cls-5" d="M193.22,90.13a14.69,14.69,0,0,1,5.39,1,11.71,11.71,0,0,1,4.12,2.72,12,12,0,0,1,2.64,4.29,17.78,17.78,0,0,1,0,11.35,12.3,12.3,0,0,1-2.64,4.31,11.49,11.49,0,0,1-4.12,2.74,15.64,15.64,0,0,1-10.79,0,11.53,11.53,0,0,1-4.15-2.74,12.36,12.36,0,0,1-2.67-4.31,17.6,17.6,0,0,1,0-11.35,12,12,0,0,1,2.67-4.29,11.75,11.75,0,0,1,4.15-2.72A14.79,14.79,0,0,1,193.22,90.13Zm0,22.41a5.61,5.61,0,0,0,4.9-2.23q1.59-2.22,1.59-6.51t-1.59-6.54a5.6,5.6,0,0,0-4.9-2.25,5.67,5.67,0,0,0-5,2.26,11.22,11.22,0,0,0-1.61,6.53,11.08,11.08,0,0,0,1.61,6.5A5.68,5.68,0,0,0,193.22,112.54Z"/><path class="cls-5" d="M209.36,117.06V90.54h3.9a1.57,1.57,0,0,1,1.63,1.16l.41,2a16.2,16.2,0,0,1,1.46-1.42,9.84,9.84,0,0,1,1.63-1.12,8.89,8.89,0,0,1,1.86-.73,8.42,8.42,0,0,1,2.19-.27,6.21,6.21,0,0,1,4.12,1.35A8.24,8.24,0,0,1,229,95.09a8,8,0,0,1,1.55-2.26,8.56,8.56,0,0,1,2-1.54,9.24,9.24,0,0,1,2.37-.88,11.25,11.25,0,0,1,2.52-.28,10.56,10.56,0,0,1,3.9.67,7.53,7.53,0,0,1,2.87,2A8.77,8.77,0,0,1,246,95.92a13.86,13.86,0,0,1,.61,4.26v16.88h-6.39V100.18a5.66,5.66,0,0,0-1.11-3.81,4.1,4.1,0,0,0-3.26-1.28,4.75,4.75,0,0,0-1.82.34,4.26,4.26,0,0,0-1.47,1,4.59,4.59,0,0,0-1,1.59,6.23,6.23,0,0,0-.36,2.2v16.88h-6.41V100.18a5.82,5.82,0,0,0-1.07-3.88,4,4,0,0,0-3.17-1.21,5.17,5.17,0,0,0-2.57.68,8.86,8.86,0,0,0-2.24,1.88v19.41Z"/></g></g></svg>